<svg width="33" height="33" viewBox="0 0 33 33" fill="none" xmlns="http://www.w3.org/2000/svg">
<path d="M6.57374 11.0126C5.44845 11.0126 4.53296 11.9281 4.53296 13.0534C4.53296 14.1787 5.44845 15.0942 6.57374 15.0942C7.69902 15.0942 8.61452 14.1787 8.61452 13.0534C8.61452 11.9281 7.69902 11.0126 6.57374 11.0126Z" fill="#FC864D"/>
<path d="M1.51703 11.5363C0.680561 11.5363 0 12.2168 0 13.0533C0 13.8898 0.680561 14.5703 1.51703 14.5703C2.35351 14.5703 3.03407 13.8898 3.03407 13.0533C3.03407 12.2168 2.35357 11.5363 1.51703 11.5363Z" fill="#FC864D"/>
<path d="M19.9467 9.93657C18.228 9.93657 16.8298 11.3347 16.8298 13.0534C16.8298 14.772 18.228 16.1702 19.9467 16.1702C21.6652 16.1702 23.0634 14.772 23.0634 13.0534C23.0634 11.3347 21.6652 9.93657 19.9467 9.93657Z" fill="#FC864D"/>
<path d="M13.7701 16.0795C15.445 15.6836 16.4818 14.0049 16.0859 12.33C15.69 10.6551 14.0113 9.61827 12.3364 10.0142C10.6615 10.4101 9.62466 12.0888 10.0206 13.7637C10.4165 15.4386 12.0952 16.4754 13.7701 16.0795Z" fill="#FC864D"/>
<path d="M19.9467 16.8298C18.228 16.8298 16.8298 18.228 16.8298 19.9466C16.8298 21.6653 18.228 23.0635 19.9467 23.0635C21.6652 23.0635 23.0634 21.6653 23.0634 19.9466C23.0634 18.228 21.6652 16.8298 19.9467 16.8298Z" fill="#FC864D"/>
<path d="M26.4263 11.0126C25.301 11.0126 24.3855 11.9281 24.3855 13.0534C24.3855 14.1787 25.301 15.0942 26.4263 15.0942C27.5516 15.0942 28.4671 14.1787 28.4671 13.0534C28.4671 11.9281 27.5516 11.0126 26.4263 11.0126Z" fill="#FC864D"/>
<path d="M31.4829 14.5704C32.3194 14.5704 32.9999 13.8898 32.9999 13.0534C32.9999 12.2169 32.3193 11.5363 31.4829 11.5363C30.6464 11.5363 29.9658 12.2169 29.9658 13.0534C29.9658 13.8898 30.6463 14.5704 31.4829 14.5704Z" fill="#FC864D"/>
<path d="M15.2534 22.1495C16.4704 20.9325 16.4704 18.9593 15.2534 17.7423C14.0364 16.5253 12.0632 16.5253 10.8462 17.7423C9.62916 18.9593 9.62916 20.9325 10.8462 22.1495C12.0632 23.3665 14.0364 23.3665 15.2534 22.1495Z" fill="#FC864D"/>
<path d="M6.57374 17.9059C5.44845 17.9059 4.53296 18.8214 4.53296 19.9467C4.53296 21.072 5.44845 21.9874 6.57374 21.9874C7.69902 21.9874 8.61452 21.072 8.61452 19.9467C8.61452 18.8214 7.69902 17.9059 6.57374 17.9059Z" fill="#FC864D"/>
<path d="M1.51703 18.4296C0.680561 18.4296 0 19.1101 0 19.9467C0 20.7831 0.680561 21.4637 1.51703 21.4637C2.35351 21.4637 3.03407 20.7831 3.03407 19.9467C3.03407 19.1101 2.35357 18.4296 1.51703 18.4296Z" fill="#FC864D"/>
<path d="M26.4263 17.9059C25.301 17.9059 24.3855 18.8214 24.3855 19.9467C24.3855 21.072 25.301 21.9874 26.4263 21.9874C27.5516 21.9874 28.4671 21.072 28.4671 19.9467C28.4671 18.8214 27.5516 17.9059 26.4263 17.9059Z" fill="#FC864D"/>
<path d="M31.4829 18.4296C30.6463 18.4296 29.9658 19.1101 29.9658 19.9466C29.9658 20.7831 30.6464 21.4636 31.4829 21.4636C32.3193 21.4636 32.9999 20.7831 32.9999 19.9467C32.9999 19.1101 32.3193 18.4296 31.4829 18.4296Z" fill="#FC864D"/>
<path d="M19.9468 8.61459C21.0721 8.61459 21.9875 7.69909 21.9875 6.57381C21.9875 5.44852 21.0721 4.53303 19.9468 4.53303C18.8215 4.53303 17.906 5.44852 17.906 6.57381C17.906 7.69909 18.8215 8.61459 19.9468 8.61459Z" fill="#FC864D"/>
<path d="M26.4263 8.61459C27.5534 8.61459 28.4671 7.7009 28.4671 6.57381C28.4671 5.44672 27.5534 4.53303 26.4263 4.53303C25.2992 4.53303 24.3855 5.44672 24.3855 6.57381C24.3855 7.7009 25.2992 8.61459 26.4263 8.61459Z" fill="#FC864D"/>
<path d="M6.57374 24.3854C5.44845 24.3854 4.53296 25.3009 4.53296 26.4262C4.53296 27.5514 5.44845 28.4669 6.57374 28.4669C7.69902 28.4669 8.61452 27.5514 8.61452 26.4262C8.61452 25.3009 7.69902 24.3854 6.57374 24.3854Z" fill="#FC864D"/>
<path d="M26.4263 24.3854C25.301 24.3854 24.3855 25.3009 24.3855 26.4262C24.3855 27.5514 25.301 28.4669 26.4263 28.4669C27.5516 28.4669 28.4671 27.5514 28.4671 26.4262C28.4671 25.3009 27.5516 24.3854 26.4263 24.3854Z" fill="#FC864D"/>
<path d="M6.57374 4.53303C5.44845 4.53303 4.53296 5.44852 4.53296 6.57381C4.53296 7.69909 5.44845 8.61459 6.57374 8.61459C7.69902 8.61459 8.61452 7.69909 8.61452 6.57381C8.61452 5.44852 7.69902 4.53303 6.57374 4.53303Z" fill="#FC864D"/>
<path d="M19.9467 3.03407C20.7846 3.03407 21.4638 2.35487 21.4638 1.51703C21.4638 0.679199 20.7846 0 19.9467 0C19.1089 0 18.4297 0.679199 18.4297 1.51703C18.4297 2.35487 19.1089 3.03407 19.9467 3.03407Z" fill="#FC864D"/>
<path d="M19.9468 24.3854C18.8215 24.3854 17.906 25.3009 17.906 26.4262C17.906 27.5514 18.8215 28.4669 19.9468 28.4669C21.0721 28.4669 21.9875 27.5514 21.9875 26.4262C21.9875 25.3009 21.0721 24.3854 19.9468 24.3854Z" fill="#FC864D"/>
<path d="M19.9467 33C20.7846 33 21.4638 32.3208 21.4638 31.4829C21.4638 30.6451 20.7846 29.9659 19.9467 29.9659C19.1089 29.9659 18.4297 30.6451 18.4297 31.4829C18.4297 32.3208 19.1089 33 19.9467 33Z" fill="#FC864D"/>
<path d="M13.0532 8.61459C14.1785 8.61459 15.094 7.69909 15.094 6.57381C15.094 5.44852 14.1785 4.53303 13.0532 4.53303C11.9279 4.53303 11.0125 5.44852 11.0125 6.57381C11.0125 7.69909 11.9279 8.61459 13.0532 8.61459Z" fill="#FC864D"/>
<path d="M13.0534 3.03407C13.8899 3.03407 14.5704 2.35351 14.5704 1.51703C14.5705 0.680561 13.8899 0 13.0534 0C12.2169 0 11.5364 0.680561 11.5364 1.51703C11.5364 2.35351 12.2169 3.03407 13.0534 3.03407Z" fill="#FC864D"/>
<path d="M13.0532 24.3854C11.9279 24.3854 11.0125 25.3009 11.0125 26.4262C11.0125 27.5514 11.9279 28.4669 13.0532 28.4669C14.1785 28.4669 15.094 27.5514 15.094 26.4262C15.094 25.3009 14.1785 24.3854 13.0532 24.3854Z" fill="#FC864D"/>
<path d="M13.0534 29.9659C12.2169 29.9659 11.5364 30.6465 11.5364 31.4829C11.5364 32.3194 12.2169 33 13.0534 33C13.8899 33 14.5704 32.3194 14.5704 31.4829C14.5704 30.6465 13.8899 29.9659 13.0534 29.9659Z" fill="#FC864D"/>
</svg>
