<svg width="197" height="33" viewBox="0 0 197 33" fill="none" xmlns="http://www.w3.org/2000/svg">
<path d="M6.57374 11.0126C5.44845 11.0126 4.53296 11.9281 4.53296 13.0534C4.53296 14.1787 5.44845 15.0942 6.57374 15.0942C7.69902 15.0942 8.61452 14.1787 8.61452 13.0534C8.61452 11.9281 7.69902 11.0126 6.57374 11.0126Z" fill="#FC864D"/>
<path d="M1.51703 11.5363C0.680561 11.5363 0 12.2168 0 13.0533C0 13.8898 0.680561 14.5703 1.51703 14.5703C2.35351 14.5703 3.03407 13.8898 3.03407 13.0533C3.03407 12.2168 2.35357 11.5363 1.51703 11.5363Z" fill="#FC864D"/>
<path d="M19.9467 9.93657C18.228 9.93657 16.8298 11.3347 16.8298 13.0534C16.8298 14.772 18.228 16.1702 19.9467 16.1702C21.6652 16.1702 23.0634 14.772 23.0634 13.0534C23.0634 11.3347 21.6652 9.93657 19.9467 9.93657Z" fill="#FC864D"/>
<path d="M13.7702 16.0795C15.4451 15.6836 16.482 14.0049 16.086 12.33C15.6901 10.6551 14.0114 9.61827 12.3365 10.0142C10.6616 10.4101 9.62479 12.0888 10.0207 13.7637C10.4166 15.4386 12.0953 16.4754 13.7702 16.0795Z" fill="#FC864D"/>
<path d="M19.9467 16.8298C18.228 16.8298 16.8298 18.228 16.8298 19.9466C16.8298 21.6653 18.228 23.0635 19.9467 23.0635C21.6652 23.0635 23.0634 21.6653 23.0634 19.9466C23.0634 18.228 21.6652 16.8298 19.9467 16.8298Z" fill="#FC864D"/>
<path d="M26.4263 11.0126C25.301 11.0126 24.3855 11.9281 24.3855 13.0534C24.3855 14.1787 25.301 15.0942 26.4263 15.0942C27.5516 15.0942 28.4671 14.1787 28.4671 13.0534C28.4671 11.9281 27.5516 11.0126 26.4263 11.0126Z" fill="#FC864D"/>
<path d="M31.483 14.5704C32.3195 14.5704 33 13.8898 33 13.0534C33 12.2169 32.3194 11.5363 31.483 11.5363C30.6465 11.5363 29.9659 12.2169 29.9659 13.0534C29.9659 13.8898 30.6464 14.5704 31.483 14.5704Z" fill="#FC864D"/>
<path d="M15.2534 22.1495C16.4704 20.9325 16.4704 18.9593 15.2534 17.7423C14.0364 16.5253 12.0632 16.5253 10.8462 17.7423C9.62916 18.9593 9.62916 20.9325 10.8462 22.1495C12.0632 23.3665 14.0364 23.3665 15.2534 22.1495Z" fill="#FC864D"/>
<path d="M6.57374 17.9059C5.44845 17.9059 4.53296 18.8214 4.53296 19.9467C4.53296 21.072 5.44845 21.9874 6.57374 21.9874C7.69902 21.9874 8.61452 21.072 8.61452 19.9467C8.61452 18.8214 7.69902 17.9059 6.57374 17.9059Z" fill="#FC864D"/>
<path d="M1.51703 18.4296C0.680561 18.4296 0 19.1101 0 19.9467C0 20.7831 0.680561 21.4637 1.51703 21.4637C2.35351 21.4637 3.03407 20.7831 3.03407 19.9467C3.03407 19.1101 2.35357 18.4296 1.51703 18.4296Z" fill="#FC864D"/>
<path d="M26.4263 17.9059C25.301 17.9059 24.3855 18.8214 24.3855 19.9467C24.3855 21.072 25.301 21.9874 26.4263 21.9874C27.5516 21.9874 28.4671 21.072 28.4671 19.9467C28.4671 18.8214 27.5516 17.9059 26.4263 17.9059Z" fill="#FC864D"/>
<path d="M31.483 18.4296C30.6464 18.4296 29.9659 19.1101 29.9659 19.9466C29.9659 20.7831 30.6465 21.4636 31.483 21.4636C32.3194 21.4636 33 20.7831 33 19.9467C33 19.1101 32.3194 18.4296 31.483 18.4296Z" fill="#FC864D"/>
<path d="M19.9467 8.61459C21.072 8.61459 21.9874 7.69909 21.9874 6.57381C21.9874 5.44852 21.072 4.53303 19.9467 4.53303C18.8214 4.53303 17.9059 5.44852 17.9059 6.57381C17.9059 7.69909 18.8214 8.61459 19.9467 8.61459Z" fill="#FC864D"/>
<path d="M26.4263 8.61459C27.5534 8.61459 28.4671 7.7009 28.4671 6.57381C28.4671 5.44672 27.5534 4.53303 26.4263 4.53303C25.2992 4.53303 24.3855 5.44672 24.3855 6.57381C24.3855 7.7009 25.2992 8.61459 26.4263 8.61459Z" fill="#FC864D"/>
<path d="M6.57374 24.3854C5.44845 24.3854 4.53296 25.3009 4.53296 26.4262C4.53296 27.5514 5.44845 28.4669 6.57374 28.4669C7.69902 28.4669 8.61452 27.5514 8.61452 26.4262C8.61452 25.3009 7.69902 24.3854 6.57374 24.3854Z" fill="#FC864D"/>
<path d="M26.4263 24.3854C25.301 24.3854 24.3855 25.3009 24.3855 26.4262C24.3855 27.5514 25.301 28.4669 26.4263 28.4669C27.5516 28.4669 28.4671 27.5514 28.4671 26.4262C28.4671 25.3009 27.5516 24.3854 26.4263 24.3854Z" fill="#FC864D"/>
<path d="M6.57374 4.53303C5.44845 4.53303 4.53296 5.44852 4.53296 6.57381C4.53296 7.69909 5.44845 8.61459 6.57374 8.61459C7.69902 8.61459 8.61452 7.69909 8.61452 6.57381C8.61452 5.44852 7.69902 4.53303 6.57374 4.53303Z" fill="#FC864D"/>
<path d="M19.9467 3.03407C20.7846 3.03407 21.4638 2.35487 21.4638 1.51703C21.4638 0.679199 20.7846 0 19.9467 0C19.1089 0 18.4297 0.679199 18.4297 1.51703C18.4297 2.35487 19.1089 3.03407 19.9467 3.03407Z" fill="#FC864D"/>
<path d="M19.9467 24.3854C18.8214 24.3854 17.9059 25.3009 17.9059 26.4262C17.9059 27.5514 18.8214 28.4669 19.9467 28.4669C21.072 28.4669 21.9874 27.5514 21.9874 26.4262C21.9874 25.3009 21.072 24.3854 19.9467 24.3854Z" fill="#FC864D"/>
<path d="M19.9467 33C20.7846 33 21.4638 32.3208 21.4638 31.4829C21.4638 30.6451 20.7846 29.9659 19.9467 29.9659C19.1089 29.9659 18.4297 30.6451 18.4297 31.4829C18.4297 32.3208 19.1089 33 19.9467 33Z" fill="#FC864D"/>
<path d="M13.0534 8.61459C14.1786 8.61459 15.0941 7.69909 15.0941 6.57381C15.0941 5.44852 14.1786 4.53303 13.0534 4.53303C11.9281 4.53303 11.0126 5.44852 11.0126 6.57381C11.0126 7.69909 11.9281 8.61459 13.0534 8.61459Z" fill="#FC864D"/>
<path d="M13.0533 3.03407C13.8898 3.03407 14.5703 2.35351 14.5703 1.51703C14.5704 0.680561 13.8898 0 13.0533 0C12.2168 0 11.5363 0.680561 11.5363 1.51703C11.5363 2.35351 12.2168 3.03407 13.0533 3.03407Z" fill="#FC864D"/>
<path d="M13.0534 24.3854C11.9281 24.3854 11.0126 25.3009 11.0126 26.4262C11.0126 27.5514 11.9281 28.4669 13.0534 28.4669C14.1786 28.4669 15.0941 27.5514 15.0941 26.4262C15.0941 25.3009 14.1786 24.3854 13.0534 24.3854Z" fill="#FC864D"/>
<path d="M13.0533 29.9659C12.2168 29.9659 11.5363 30.6465 11.5363 31.4829C11.5363 32.3194 12.2168 33 13.0533 33C13.8898 33 14.5703 32.3194 14.5703 31.4829C14.5703 30.6465 13.8898 29.9659 13.0533 29.9659Z" fill="#FC864D"/>
<path d="M42.5984 29.3803C41.054 29.3803 39.7056 29.1037 38.553 28.5505C37.4235 27.9742 36.4554 27.179 35.6486 26.1647L39.2791 22.6725C39.694 23.2488 40.1781 23.6868 40.7313 23.9864C41.3076 24.2861 41.953 24.4359 42.6676 24.4359C43.3591 24.4359 43.9584 24.2976 44.4656 24.021C44.9727 23.7214 45.3761 23.3064 45.6757 22.7763C45.9754 22.2231 46.1252 21.5431 46.1252 20.7363V4.58918H51.5883V20.4251C51.5883 22.2461 51.2194 23.8251 50.4818 25.162C49.7442 26.499 48.7069 27.5363 47.37 28.2739C46.033 29.0115 44.4425 29.3803 42.5984 29.3803ZM55.4341 29V12.1959H60.7242V29H55.4341ZM58.0964 9.87934C57.2666 9.87934 56.5751 9.60273 56.0219 9.04951C55.4917 8.47324 55.2266 7.78172 55.2266 6.97494C55.2266 6.14511 55.4917 5.45358 56.0219 4.90036C56.5751 4.34715 57.2666 4.07054 58.0964 4.07054C58.9263 4.07054 59.6063 4.34715 60.1364 4.90036C60.6666 5.45358 60.9317 6.14511 60.9317 6.97494C60.9317 7.78172 60.6666 8.47324 60.1364 9.04951C59.6063 9.60273 58.9263 9.87934 58.0964 9.87934ZM74.1309 29.3458C73.0014 29.3458 71.9641 29.1153 71.019 28.6542C70.0739 28.1702 69.3017 27.5363 68.7024 26.7525C68.1031 25.9458 67.7573 25.0468 67.6651 24.0556V16.9675C67.7573 15.9763 68.1031 15.1004 68.7024 14.3397C69.3017 13.5559 70.0739 12.9451 71.019 12.5071C71.9641 12.0692 73.0014 11.8502 74.1309 11.8502C75.7214 11.8502 77.1275 12.2305 78.3492 12.9912C79.5939 13.7519 80.5621 14.7892 81.2536 16.1031C81.9682 17.417 82.3255 18.9153 82.3255 20.598C82.3255 22.2807 81.9682 23.779 81.2536 25.0929C80.5621 26.4068 79.5939 27.4441 78.3492 28.2047C77.1275 28.9654 75.7214 29.3458 74.1309 29.3458ZM64.4495 29V3.89765H69.7397V16.3105L68.8753 20.3905L69.6706 24.4705V29H64.4495ZM73.1973 24.5742C73.935 24.5742 74.5804 24.4014 75.1336 24.0556C75.7099 23.7098 76.1594 23.2373 76.4821 22.638C76.8048 22.0387 76.9661 21.3587 76.9661 20.598C76.9661 19.8142 76.8048 19.1227 76.4821 18.5234C76.1594 17.9241 75.7099 17.4631 75.1336 17.1404C74.5804 16.7946 73.935 16.6217 73.1973 16.6217C72.4597 16.6217 71.8028 16.7946 71.2265 17.1404C70.6502 17.4631 70.2007 17.9241 69.878 18.5234C69.5783 19.1227 69.4285 19.8142 69.4285 20.598C69.4285 21.3817 69.5899 22.0732 69.9126 22.6725C70.2353 23.2719 70.6733 23.7444 71.2265 24.0902C71.8028 24.4129 72.4597 24.5742 73.1973 24.5742ZM94.6943 29.3458C93.5648 29.3458 92.5275 29.1153 91.5824 28.6542C90.6373 28.1702 89.8651 27.5363 89.2658 26.7525C88.6665 25.9458 88.3207 25.0468 88.2285 24.0556V16.9675C88.3207 15.9763 88.6665 15.1004 89.2658 14.3397C89.8651 13.5559 90.6373 12.9451 91.5824 12.5071C92.5275 12.0692 93.5648 11.8502 94.6943 11.8502C96.2848 11.8502 97.6909 12.2305 98.9126 12.9912C100.157 13.7519 101.125 14.7892 101.817 16.1031C102.532 17.417 102.889 18.9153 102.889 20.598C102.889 22.2807 102.532 23.779 101.817 25.0929C101.125 26.4068 100.157 27.4441 98.9126 28.2047C97.6909 28.9654 96.2848 29.3458 94.6943 29.3458ZM85.0129 29V3.89765H90.3031V16.3105L89.4387 20.3905L90.234 24.4705V29H85.0129ZM93.7607 24.5742C94.4984 24.5742 95.1438 24.4014 95.697 24.0556C96.2733 23.7098 96.7228 23.2373 97.0455 22.638C97.3682 22.0387 97.5295 21.3587 97.5295 20.598C97.5295 19.8142 97.3682 19.1227 97.0455 18.5234C96.7228 17.9241 96.2733 17.4631 95.697 17.1404C95.1438 16.7946 94.4984 16.6217 93.7607 16.6217C93.0231 16.6217 92.3662 16.7946 91.7899 17.1404C91.2136 17.4631 90.7641 17.9241 90.4414 18.5234C90.1418 19.1227 89.9919 19.8142 89.9919 20.598C89.9919 21.3817 90.1533 22.0732 90.476 22.6725C90.7987 23.2719 91.2367 23.7444 91.7899 24.0902C92.3662 24.4129 93.0231 24.5742 93.7607 24.5742ZM113.875 29.3803C112.054 29.3803 110.429 29.0115 108.999 28.2739C107.593 27.5132 106.487 26.4644 105.68 25.1275C104.873 23.7905 104.47 22.2807 104.47 20.598C104.47 18.9153 104.862 17.417 105.645 16.1031C106.452 14.7661 107.536 13.7173 108.896 12.9566C110.256 12.196 111.789 11.8156 113.494 11.8156C115.154 11.8156 116.618 12.1729 117.885 12.8875C119.153 13.602 120.144 14.5932 120.859 15.861C121.597 17.1288 121.965 18.581 121.965 20.2176C121.965 20.5173 121.942 20.84 121.896 21.1858C121.873 21.5085 121.816 21.8888 121.723 22.3268L107.236 22.3614V18.7309L119.476 18.6963L117.194 20.2176C117.171 19.2495 117.021 18.4542 116.744 17.8319C116.468 17.1865 116.053 16.7024 115.5 16.3797C114.97 16.0339 114.313 15.861 113.529 15.861C112.699 15.861 111.973 16.057 111.351 16.4488C110.751 16.8176 110.279 17.3478 109.933 18.0393C109.61 18.7309 109.449 19.5722 109.449 20.5634C109.449 21.5546 109.622 22.4075 109.968 23.122C110.336 23.8136 110.843 24.3553 111.489 24.7471C112.157 25.1159 112.941 25.3003 113.84 25.3003C114.67 25.3003 115.419 25.162 116.088 24.8854C116.756 24.5858 117.344 24.1478 117.851 23.5715L120.755 26.4759C119.925 27.4441 118.923 28.1702 117.747 28.6542C116.572 29.1383 115.281 29.3803 113.875 29.3803ZM124.519 29V12.1959H129.809V29H124.519ZM129.809 19.7681L127.596 18.0393C128.034 16.08 128.772 14.5587 129.809 13.4753C130.846 12.3919 132.287 11.8502 134.131 11.8502C134.938 11.8502 135.641 11.977 136.24 12.2305C136.863 12.461 137.404 12.8298 137.865 13.337L134.719 17.3132C134.488 17.0597 134.2 16.8637 133.855 16.7254C133.509 16.5871 133.117 16.518 132.679 16.518C131.803 16.518 131.1 16.7946 130.57 17.3478C130.063 17.878 129.809 18.6848 129.809 19.7681ZM141.231 29V5.41901H143.063V29H141.231ZM142.407 29V27.3403H155.718V29H142.407ZM165.965 29.3458C164.42 29.3458 163.026 28.9769 161.781 28.2393C160.559 27.5017 159.591 26.5105 158.877 25.2658C158.162 23.998 157.805 22.5688 157.805 20.9783C157.805 19.4109 158.162 17.9932 158.877 16.7254C159.591 15.4576 160.559 14.4549 161.781 13.7173C163.003 12.9566 164.374 12.5763 165.896 12.5763C167.14 12.5763 168.247 12.8183 169.215 13.3024C170.206 13.7634 171.013 14.4204 171.635 15.2732C172.281 16.1261 172.696 17.1404 172.88 18.3159V23.5715C172.673 24.7471 172.246 25.7729 171.601 26.6488C170.978 27.5017 170.183 28.1702 169.215 28.6542C168.27 29.1153 167.187 29.3458 165.965 29.3458ZM166.207 27.6861C168.051 27.6861 169.515 27.0753 170.598 25.8536C171.704 24.6088 172.258 22.9837 172.258 20.9783C172.258 19.6183 172.004 18.4427 171.497 17.4515C171.013 16.4373 170.31 15.6536 169.388 15.1004C168.466 14.5241 167.394 14.2359 166.172 14.2359C164.904 14.2359 163.775 14.5241 162.784 15.1004C161.816 15.6766 161.043 16.4719 160.467 17.4861C159.914 18.5004 159.637 19.6529 159.637 20.9437C159.637 22.2576 159.914 23.4217 160.467 24.4359C161.043 25.4502 161.827 26.2454 162.818 26.8217C163.81 27.398 164.939 27.6861 166.207 27.6861ZM172.189 29V24.678L172.569 20.7363L172.189 16.8292V12.9221H173.952V29H172.189ZM187.295 29.3458C186.097 29.3458 184.99 29.1037 183.976 28.6197C182.985 28.1356 182.155 27.4671 181.487 26.6142C180.818 25.7383 180.38 24.7241 180.173 23.5715V18.3159C180.38 17.1404 180.818 16.1261 181.487 15.2732C182.178 14.3973 183.019 13.7288 184.011 13.2678C185.025 12.8068 186.12 12.5763 187.295 12.5763C188.817 12.5763 190.177 12.9451 191.375 13.6827C192.574 14.4204 193.519 15.4231 194.211 16.6909C194.902 17.9587 195.248 19.3878 195.248 20.9783C195.248 22.5688 194.902 23.998 194.211 25.2658C193.519 26.5105 192.574 27.5017 191.375 28.2393C190.177 28.9769 188.817 29.3458 187.295 29.3458ZM179.135 29V4.72748H180.899V16.8292L180.484 20.7363L180.899 24.678V29H179.135ZM186.984 27.6861C188.252 27.6861 189.37 27.398 190.338 26.8217C191.306 26.2454 192.067 25.4502 192.62 24.4359C193.173 23.4217 193.45 22.2576 193.45 20.9437C193.45 19.6298 193.173 18.4658 192.62 17.4515C192.067 16.4373 191.306 15.6536 190.338 15.1004C189.393 14.5241 188.31 14.2359 187.088 14.2359C185.843 14.2359 184.748 14.5241 183.803 15.1004C182.881 15.6536 182.155 16.4373 181.625 17.4515C181.095 18.4658 180.83 19.6414 180.83 20.9783C180.83 22.2922 181.083 23.4563 181.59 24.4705C182.12 25.4617 182.847 26.2454 183.769 26.8217C184.714 27.398 185.786 27.6861 186.984 27.6861Z" fill="black"/>
</svg>
