<svg width="160" height="26" viewBox="0 0 160 26" fill="none" xmlns="http://www.w3.org/2000/svg">
<path d="M6.94988 25.4827C5.40548 25.4827 4.057 25.2061 2.90446 24.6529C1.77497 24.0766 0.806837 23.2813 5.84866e-05 22.2671L3.63056 18.7749C4.04548 19.3512 4.52955 19.7891 5.08277 20.0888C5.65904 20.3885 6.30446 20.5383 7.01903 20.5383C7.71056 20.5383 8.30988 20.4 8.817 20.1234C9.32412 19.8237 9.72751 19.4088 10.0272 18.8786C10.3268 18.3254 10.4767 17.6454 10.4767 16.8386V0.691527H15.9397V16.5274C15.9397 18.3485 15.5709 19.9274 14.8333 21.2644C14.0956 22.6013 13.0583 23.6386 11.7214 24.3762C10.3845 25.1139 8.79395 25.4827 6.94988 25.4827ZM19.7855 25.1023V8.2983H25.0757V25.1023H19.7855ZM22.4479 5.98169C21.618 5.98169 20.9265 5.70508 20.3733 5.15186C19.8431 4.57559 19.578 3.88407 19.578 3.07729C19.578 2.24746 19.8431 1.55593 20.3733 1.00271C20.9265 0.449494 21.618 0.172884 22.4479 0.172884C23.2777 0.172884 23.9577 0.449494 24.4879 1.00271C25.018 1.55593 25.2831 2.24746 25.2831 3.07729C25.2831 3.88407 25.018 4.57559 24.4879 5.15186C23.9577 5.70508 23.2777 5.98169 22.4479 5.98169ZM38.4823 25.4481C37.3528 25.4481 36.3155 25.2176 35.3705 24.7566C34.4254 24.2725 33.6532 23.6386 33.0539 22.8549C32.4545 22.0481 32.1088 21.1491 32.0166 20.1579V13.0698C32.1088 12.0786 32.4545 11.2027 33.0539 10.442C33.6532 9.6583 34.4254 9.04745 35.3705 8.60948C36.3155 8.17152 37.3528 7.95254 38.4823 7.95254C40.0728 7.95254 41.4789 8.33287 42.7006 9.09355C43.9454 9.85423 44.9135 10.8915 45.605 12.2054C46.3196 13.5193 46.6769 15.0176 46.6769 16.7003C46.6769 18.383 46.3196 19.8813 45.605 21.1952C44.9135 22.5091 43.9454 23.5464 42.7006 24.3071C41.4789 25.0678 40.0728 25.4481 38.4823 25.4481ZM28.801 25.1023V2.85566e-06H34.0911V12.4129L33.2267 16.4929L34.022 20.5729V25.1023H28.801ZM37.5488 20.6766C38.2864 20.6766 38.9318 20.5037 39.485 20.1579C40.0613 19.8122 40.5108 19.3396 40.8335 18.7403C41.1562 18.141 41.3176 17.461 41.3176 16.7003C41.3176 15.9166 41.1562 15.2251 40.8335 14.6257C40.5108 14.0264 40.0613 13.5654 39.485 13.2427C38.9318 12.8969 38.2864 12.7241 37.5488 12.7241C36.8111 12.7241 36.1542 12.8969 35.5779 13.2427C35.0017 13.5654 34.5522 14.0264 34.2295 14.6257C33.9298 15.2251 33.78 15.9166 33.78 16.7003C33.78 17.4841 33.9413 18.1756 34.264 18.7749C34.5867 19.3742 35.0247 19.8468 35.5779 20.1925C36.1542 20.5152 36.8111 20.6766 37.5488 20.6766ZM59.0457 25.4481C57.9162 25.4481 56.879 25.2176 55.9339 24.7566C54.9888 24.2725 54.2166 23.6386 53.6173 22.8549C53.0179 22.0481 52.6722 21.1491 52.58 20.1579V13.0698C52.6722 12.0786 53.0179 11.2027 53.6173 10.442C54.2166 9.6583 54.9888 9.04745 55.9339 8.60948C56.879 8.17152 57.9162 7.95254 59.0457 7.95254C60.6362 7.95254 62.0423 8.33287 63.264 9.09355C64.5088 9.85423 65.4769 10.8915 66.1684 12.2054C66.883 13.5193 67.2403 15.0176 67.2403 16.7003C67.2403 18.383 66.883 19.8813 66.1684 21.1952C65.4769 22.5091 64.5088 23.5464 63.264 24.3071C62.0423 25.0678 60.6362 25.4481 59.0457 25.4481ZM49.3644 25.1023V2.85566e-06H54.6545V12.4129L53.7901 16.4929L54.5854 20.5729V25.1023H49.3644ZM58.1122 20.6766C58.8498 20.6766 59.4952 20.5037 60.0484 20.1579C60.6247 19.8122 61.0742 19.3396 61.3969 18.7403C61.7196 18.141 61.881 17.461 61.881 16.7003C61.881 15.9166 61.7196 15.2251 61.3969 14.6257C61.0742 14.0264 60.6247 13.5654 60.0484 13.2427C59.4952 12.8969 58.8498 12.7241 58.1122 12.7241C57.3745 12.7241 56.7176 12.8969 56.1413 13.2427C55.5651 13.5654 55.1156 14.0264 54.7929 14.6257C54.4932 15.2251 54.3434 15.9166 54.3434 16.7003C54.3434 17.4841 54.5047 18.1756 54.8274 18.7749C55.1501 19.3742 55.5881 19.8468 56.1413 20.1925C56.7176 20.5152 57.3745 20.6766 58.1122 20.6766ZM78.2261 25.4827C76.4051 25.4827 74.78 25.1139 73.3508 24.3762C71.9447 23.6156 70.8383 22.5668 70.0315 21.2298C69.2247 19.8929 68.8213 18.383 68.8213 16.7003C68.8213 15.0176 69.2132 13.5193 69.9969 12.2054C70.8037 10.8685 71.8871 9.81965 73.2471 9.05898C74.6071 8.2983 76.14 7.91796 77.8457 7.91796C79.5054 7.91796 80.9691 8.27525 82.2369 8.98982C83.5047 9.7044 84.4959 10.6956 85.2105 11.9634C85.9481 13.2312 86.3169 14.6834 86.3169 16.32C86.3169 16.6196 86.2939 16.9424 86.2478 17.2881C86.2247 17.6108 86.1671 17.9912 86.0749 18.4291L71.5874 18.4637V14.8332L83.8274 14.7986L81.5454 16.32C81.5223 15.3519 81.3725 14.5566 81.0959 13.9342C80.8193 13.2888 80.4044 12.8047 79.8512 12.482C79.321 12.1363 78.664 11.9634 77.8803 11.9634C77.0505 11.9634 76.3244 12.1593 75.702 12.5512C75.1027 12.92 74.6302 13.4502 74.2844 14.1417C73.9617 14.8332 73.8003 15.6746 73.8003 16.6657C73.8003 17.6569 73.9732 18.5098 74.319 19.2244C74.6878 19.9159 75.1949 20.4576 75.8403 20.8495C76.5088 21.2183 77.2925 21.4027 78.1915 21.4027C79.0213 21.4027 79.7705 21.2644 80.439 20.9878C81.1074 20.6881 81.6952 20.2502 82.2023 19.6739L85.1068 22.5783C84.2769 23.5464 83.2742 24.2725 82.0986 24.7566C80.923 25.2407 79.6322 25.4827 78.2261 25.4827ZM88.8704 25.1023V8.2983H94.1606V25.1023H88.8704ZM94.1606 15.8705L91.9477 14.1417C92.3857 12.1824 93.1233 10.661 94.1606 9.57762C95.1979 8.49423 96.6386 7.95254 98.4826 7.95254C99.2894 7.95254 99.9925 8.07932 100.592 8.33287C101.214 8.56338 101.756 8.9322 102.217 9.43931L99.0704 13.4156C98.8399 13.162 98.5518 12.9661 98.206 12.8278C97.8603 12.6895 97.4684 12.6203 97.0304 12.6203C96.1545 12.6203 95.4514 12.8969 94.9213 13.4502C94.4142 13.9803 94.1606 14.7871 94.1606 15.8705ZM105.582 25.1023V1.52136H107.415V25.1023H105.582ZM106.758 25.1023V23.4427H120.07V25.1023H106.758ZM130.316 25.4481C128.772 25.4481 127.377 25.0793 126.133 24.3417C124.911 23.604 123.943 22.6129 123.228 21.3681C122.514 20.1003 122.156 18.6712 122.156 17.0807C122.156 15.5132 122.514 14.0956 123.228 12.8278C123.943 11.56 124.911 10.5573 126.133 9.81965C127.354 9.05898 128.726 8.67864 130.247 8.67864C131.492 8.67864 132.598 8.92067 133.566 9.40474C134.558 9.86575 135.364 10.5227 135.987 11.3756C136.632 12.2285 137.047 13.2427 137.232 14.4183V19.6739C137.024 20.8495 136.598 21.8752 135.952 22.7512C135.33 23.604 134.535 24.2725 133.566 24.7566C132.621 25.2176 131.538 25.4481 130.316 25.4481ZM130.558 23.7885C132.402 23.7885 133.866 23.1776 134.949 21.9559C136.056 20.7112 136.609 19.0861 136.609 17.0807C136.609 15.7207 136.356 14.5451 135.848 13.5539C135.364 12.5396 134.661 11.7559 133.739 11.2027C132.817 10.6264 131.745 10.3383 130.524 10.3383C129.256 10.3383 128.126 10.6264 127.135 11.2027C126.167 11.779 125.395 12.5742 124.819 13.5885C124.265 14.6027 123.989 15.7552 123.989 17.0461C123.989 18.36 124.265 19.524 124.819 20.5383C125.395 21.5525 126.179 22.3478 127.17 22.924C128.161 23.5003 129.291 23.7885 130.558 23.7885ZM136.54 25.1023V20.7803L136.92 16.8386L136.54 12.9315V9.0244H138.303V25.1023H136.54ZM151.647 25.4481C150.448 25.4481 149.342 25.2061 148.328 24.722C147.336 24.2379 146.506 23.5695 145.838 22.7166C145.17 21.8407 144.732 20.8264 144.524 19.6739V14.4183C144.732 13.2427 145.17 12.2285 145.838 11.3756C146.53 10.4997 147.371 9.83118 148.362 9.37016C149.376 8.90915 150.471 8.67864 151.647 8.67864C153.168 8.67864 154.528 9.04745 155.727 9.78508C156.925 10.5227 157.871 11.5254 158.562 12.7932C159.254 14.061 159.599 15.4902 159.599 17.0807C159.599 18.6712 159.254 20.1003 158.562 21.3681C157.871 22.6129 156.925 23.604 155.727 24.3417C154.528 25.0793 153.168 25.4481 151.647 25.4481ZM143.487 25.1023V0.829832H145.25V12.9315L144.835 16.8386L145.25 20.7803V25.1023H143.487ZM151.336 23.7885C152.603 23.7885 153.721 23.5003 154.69 22.924C155.658 22.3478 156.418 21.5525 156.972 20.5383C157.525 19.524 157.801 18.36 157.801 17.0461C157.801 15.7322 157.525 14.5681 156.972 13.5539C156.418 12.5396 155.658 11.7559 154.69 11.2027C153.744 10.6264 152.661 10.3383 151.439 10.3383C150.195 10.3383 149.1 10.6264 148.155 11.2027C147.233 11.7559 146.506 12.5396 145.976 13.5539C145.446 14.5681 145.181 15.7437 145.181 17.0807C145.181 18.3946 145.435 19.5586 145.942 20.5729C146.472 21.564 147.198 22.3478 148.12 22.924C149.065 23.5003 150.137 23.7885 151.336 23.7885Z" fill="black"/>
</svg>
